# xmcd
#
# Track frame offsets:
#	183
#	10435
#	23393
#	36653
#	51480
#	63648
#	86658
#	98553
#	120728
#	133235
#	147598
#	160590
#	173888
#	186348
#	200210
#	213788
#	227633
#	240145
#	249898
#	261578
#
# Disc length: 3670 seconds
#
# Revision: 4
# Processed by: cddbd v1.4PL0 Copyright (c) Steve Scherf et al.
# Submitted via: audiograbber 1.81.03
#
DISCID=210e5414
DTITLE=Various Artist - Kings Of The Blues Guitar Vol. 2
DYEAR=1993
DGENRE=Blues
TTITLE0=B.B. King - Don't Keep Me Waiting
TTITLE1=J.B. Lenoir - Eisenhower Blues
TTITLE2=Earl Hooker - Tanya
TTITLE3=Elmore James - Pickin' The Blues
TTITLE4=Jimmy Rogers - Chicago Bound
TTITLE5=Eric Clapton and The Yardbirds - Five Long Years
TTITLE6=Buddy Guy - Ten Years Ago
TTITLE7=Luther Allison - Sweet Home Chicago
TTITLE8=E. Taylor - Big Town Playboy
TTITLE9=Otis Rush - So Many Roads, So Many Trains
TTITLE10=Albert King - (Be On Your) Merry Way
TTITLE11=Muddy Waters - Mannish Boy
TTITLE12=T. Bone Walker - Glamor Girl
TTITLE13=Chuck Berry - Wee Wee Hours
TTITLE14=John Brim - You Got Me
TTITLE15=The Yardbirds (feat. Jeff Beck) - Jeff's Blues
TTITLE16=Pee Wee Crayton - Blues After Hours
TTITLE17=Magic Sam - Love Me With A Feeling
TTITLE18=John Lee Hooker - Solid Sender
TTITLE19=Hound Dog Taylor - Watch Out
EXTD=
EXTT0=
EXTT1=
EXTT2=
EXTT3=
EXTT4=
EXTT5=
EXTT6=
EXTT7=
EXTT8=
EXTT9=
EXTT10=
EXTT11=
EXTT12=
EXTT13=
EXTT14=
EXTT15=
EXTT16=
EXTT17=
EXTT18=
EXTT19=
PLAYORDER=
